<svg preserveAspectRatio="xMidYMid meet" data-bbox="1 1 206 85" xmlns="http://www.w3.org/2000/svg" viewBox="0 0 208 87" height="87" width="208" data-type="ugc" role="presentation" aria-hidden="true" aria-label="">
    <g>
        <path stroke-linecap="round" stroke="#3E2B24" d="M104.082 1c-5.54 6.825-12.188 12.85-18.42 19.013C69.175 36.317 52.416 52.47 37.004 69.817c-4.516 5.083-8.7 10.403-12.318 16.165-.23.367 3.852-5.024 4.567-6.081 3.763-5.563 7.023-11.407 10.59-17.089 8.471-13.49 19.256-26.003 30.815-36.91 5.617-5.301 12.07-10.29 19.148-13.51.47-.213 3.329-1.502 3.109.155-1.156 8.696-14.923 16.214-21.681 19.167-2.452 1.07-9.84 4.699-12.74 2.848-.134-.085 12.083-2.723 12.586-2.771 10.85-1.037 22.076-1.1 32.925 0 4.086.414 18.076 3.502 7.636 8.313-15.214 7.011-34.778 7.337-51.075 9.391-18.073 2.278-36.843 3.779-54.414 8.891-1.383.402-8.793 2.91-2.917 3.81 9.607 1.472 19.935.767 29.625 1.001 7.37.178 14.736.506 22.103.693 4.889.124 11.239-.069 14.928-3.849 3.01-3.086 2.708-8.183 3.184-12.124 1.25-10.333 12.756-7.116 20.415-5.735 6.497 1.172 12.499 3.311 18.266 6.466 1.77.969 2.017.805 3.454-.615 4.096-4.05 8.126-8.17 12.203-12.24 3.961-3.954 8.453-9.947 13.853-12.085 4.471-1.77 4.859 2.058 7.79 4.195 2.007 1.464 5.735.53 7.828.193 9.021-1.457 17.827-4.146 26.861-5.466 1.322-.193 2.499-.274 3.723.231 5.794 2.393 13.448 2.242 19.532 3.08" fill="none"></path>
    </g>
</svg>